ffmpeg version N-82167-g5e96558 Copyright (c) 2000-2016 the FFmpeg developers
  built with gcc 5.4.0 (Ubuntu 5.4.0-6ubuntu1~16.04.2) 20160609
  configuration: --prefix=/root/ffmpeg_build --pkg-config-flags=--static --extra-cflags=-I/root/ffmpeg_build/include --extra-ldflags=-L/root/ffmpeg_build/lib --bindir=/root/bin --enable-gpl --enable-libass --enable-libfdk-aac --enable-libfreetype --enable-libmp3lame --enable-libopus --enable-libtheora --enable-libvorbis --enable-libx264 --enable-libx265 --enable-nonfree
  libavutil      55. 35.100 / 55. 35.100
  libavcodec     57. 65.100 / 57. 65.100
  libavformat    57. 57.100 / 57. 57.100
  libavdevice    57.  2.100 / 57.  2.100
  libavfilter     6. 66.100 /  6. 66.100
  libswscale      4.  3.100 /  4.  3.100
  libswresample   2.  4.100 /  2.  4.100
  libpostproc    54.  2.100 / 54.  2.100
Input #0, matroska,webm, from '/media/yubikiri/bot/queue/3AnimePahe_Detective_Conan_-_061_720p_Fansub.mkv':
  Metadata:
    title           : 3|Text||0|0
    ALBUM           : Anime
    LANGUAGE        : Undefined
    ENCODER         : Lavf57.57.100
  Duration: 00:24:29.01, start: 0.000000, bitrate: 976 kb/s
    Stream #0:0: Video: mpeg4 (Advanced Simple Profile), yuv420p, 640x480 [SAR 1:1 DAR 4:3], 23.98 fps, 23.98 tbr, 1k tbn, 23.98 tbc (default)
    Metadata:
      DURATION        : 00:24:29.010000000
    Stream #0:1: Audio: mp3, 48000 Hz, stereo, s16p, 128 kb/s (default)
    Metadata:
      DURATION        : 00:24:28.968000000
[libx264 @ 0x28282c0] using SAR=1/1
[libx264 @ 0x28282c0] using cpu capabilities: MMX2 SSE2Fast SSSE3 SSE4.2 AVX FMA3 AVX2 LZCNT BMI2
[libx264 @ 0x28282c0] profile High, level 3.1
[libx264 @ 0x28282c0] 264 - core 148 r2643 5c65704 - H.264/MPEG-4 AVC codec - Copyleft 2003-2015 - http://www.videolan.org/x264.html - options: cabac=1 ref=8 deblock=1:1:1 analyse=0x3:0x133 me=umh subme=7 psy=1 psy_rd=0.00:0.00 mixed_ref=1 me_range=8 chroma_me=1 trellis=0 8x8dct=1 cqm=0 deadzone=21,11 fast_pskip=1 chroma_qp_offset=0 threads=8 lookahead_threads=2 sliced_threads=0 nr=0 decimate=1 interlaced=0 bluray_compat=0 constrained_intra=0 bframes=3 b_pyramid=2 b_adapt=2 b_bias=0 direct=1 weightb=1 open_gop=0 weightp=2 keyint=240 keyint_min=24 scenecut=40 intra_refresh=0 rc_lookahead=60 rc=crf mbtree=1 crf=27.0 qcomp=0.60 qpmin=0 qpmax=69 qpstep=4 ip_ratio=1.40 aq=1:1.00
[libfdk_aac @ 0x27bbc00] Note, the VBR setting is unsupported and only works with some parameter combinations
Output #0, mp4, to '/media/yubikiri/bot/queue/3AnimePahe_Detective_Conan_-_061_720p_Fansub.mkv_encoded.mp4':
  Metadata:
    encoder         : Lavf57.57.100
    Stream #0:0: Video: h264 (libx264) ([33][0][0][0] / 0x0021), yuv420p, 640x480 [SAR 1:1 DAR 4:3], q=-1--1, 23.98 fps, 24k tbn, 23.98 tbc (default)
    Metadata:
      encoder         : Lavc57.65.100 libx264
    Side data:
      cpb: bitrate max/min/avg: 0/0/0 buffer size: 0 vbv_delay: -1
    Stream #0:1: Audio: aac (libfdk_aac) (HE-AACv2) ([64][0][0][0] / 0x0040), 48000 Hz, stereo, s16, 48 kb/s (default)
    Metadata:
      encoder         : Lavc57.65.100 libfdk_aac
Stream mapping:
  Stream #0:0 -> #0:0 (mpeg4 (native) -> h264 (libx264))
  Stream #0:1 -> #0:1 (mp3 (native) -> aac (libfdk_aac))
Press [q] to stop, [?] for help
frame=  119 fps=0.0 q=32.0 size=      73kB time=00:00:05.09 bitrate= 117.7kbits/s dup=1 drop=0 speed=10.1x    frame=  180 fps=178 q=32.0 size=     185kB time=00:00:07.65 bitrate= 197.9kbits/s dup=1 drop=0 speed=7.57x    frame=  226 fps=148 q=32.0 size=     293kB time=00:00:09.57 bitrate= 250.3kbits/s dup=1 drop=0 speed=6.29x    frame=  269 fps=132 q=32.0 size=     411kB time=00:00:11.37 bitrate= 296.2kbits/s dup=1 drop=0 speed= 5.6x    frame=  320 fps=126 q=32.0 size=     589kB time=00:00:13.50 bitrate= 357.3kbits/s dup=1 drop=0 speed=5.34x    frame=  365 fps=119 q=32.0 size=     726kB time=00:00:15.38 bitrate= 386.9kbits/s dup=1 drop=0 speed=5.03x    frame=  426 fps=120 q=32.0 size=     899kB time=00:00:17.94 bitrate= 410.6kbits/s dup=1 drop=0 speed=5.03x    frame=  484 fps=119 q=32.0 size=    1031kB time=00:00:20.33 bitrate= 415.4kbits/s dup=1 drop=0 speed=   5x    frame=  548 fps=120 q=32.0 size=    1175kB time=00:00:23.01 bitrate= 418.3kbits/s dup=1 drop=0 speed=5.04x    frame=  597 fps=117 q=32.0 size=    1283kB time=00:00:25.06 bitrate= 419.4kbits/s dup=1 drop=0 speed=4.91x    frame=  650 fps=116 q=32.0 size=    1403kB time=00:00:27.24 bitrate= 421.8kbits/s dup=1 drop=0 speed=4.86x    frame=  743 fps=122 q=32.0 size=    1507kB time=00:00:31.12 bitrate= 396.7kbits/s dup=1 drop=0 speed= 5.1x    frame=  818 fps=123 q=32.0 size=    1645kB time=00:00:34.28 bitrate= 393.2kbits/s dup=1 drop=0 speed=5.17x    frame=  872 fps=122 q=32.0 size=    1758kB time=00:00:36.54 bitrate= 394.1kbits/s dup=1 drop=0 speed=5.12x    frame=  927 fps=121 q=32.0 size=    1824kB time=00:00:38.84 bitrate= 384.6kbits/s dup=1 drop=0 speed=5.08x    frame=  971 fps=119 q=32.0 size=    1905kB time=00:00:40.64 bitrate= 384.1kbits/s dup=1 drop=0 speed=4.98x    frame=  994 fps=115 q=29.0 size=    2037kB time=00:00:41.62 bitrate= 401.0kbits/s dup=1 drop=0 speed= 4.8x    frame= 1041 fps=114 q=32.0 size=    2176kB time=00:00:43.58 bitrate= 408.9kbits/s dup=1 drop=0 speed=4.75x    frame= 1090 fps=113 q=32.0 size=    2282kB time=00:00:45.63 bitrate= 409.7kbits/s dup=1 drop=0 speed=4.72x    frame= 1155 fps=113 q=32.0 size=    2425kB time=00:00:48.32 bitrate= 411.1kbits/s dup=1 drop=0 speed=4.75x    frame= 1191 fps=111 q=32.0 size=    2544kB time=00:00:49.81 bitrate= 418.3kbits/s dup=1 drop=0 speed=4.64x    frame= 1237 fps=110 q=32.0 size=    2697kB time=00:00:51.73 bitrate= 427.1kbits/s dup=1 drop=0 speed=4.59x    frame= 1274 fps=108 q=32.0 size=    2792kB time=00:00:53.31 bitrate= 428.9kbits/s dup=1 drop=0 speed=4.53x    frame= 1309 fps=107 q=32.0 size=    2889kB time=00:00:54.76 bitrate= 432.1kbits/s dup=1 drop=0 speed=4.46x    frame= 1370 fps=107 q=32.0 size=    2995kB time=00:00:57.28 bitrate= 428.3kbits/s dup=1 drop=0 speed=4.48x    frame= 1439 fps=108 q=32.0 size=    3071kB time=00:01:00.18 bitrate= 418.0kbits/s dup=1 drop=0 speed=4.53x    frame= 1508 fps=109 q=32.0 size=    3157kB time=00:01:03.04 bitrate= 410.2kbits/s dup=1 drop=0 speed=4.57x    frame= 1553 fps=108 q=32.0 size=    3249kB time=00:01:04.96 bitrate= 409.7kbits/s dup=1 drop=0 speed=4.53x    frame= 1594 fps=107 q=32.0 size=    3325kB time=00:01:06.66 bitrate= 408.6kbits/s dup=1 drop=0 speed=4.49x    frame= 1635 fps=107 q=32.0 size=    3423kB time=00:01:08.33 bitrate= 410.4kbits/s dup=1 drop=0 speed=4.45x    frame= 1681 fps=106 q=32.0 size=    3526kB time=00:01:10.25 bitrate= 411.2kbits/s dup=1 drop=0 speed=4.42x    frame= 1733 fps=106 q=32.0 size=    3634kB time=00:01:12.42 bitrate= 411.1kbits/s dup=1 drop=0 speed=4.42x    frame= 1805 fps=107 q=32.0 size=    3760kB time=00:01:15.41 bitrate= 408.4kbits/s dup=1 drop=0 speed=4.47x    frame= 1867 fps=107 q=32.0 size=    3886kB time=00:01:18.01 bitrate= 408.1kbits/s dup=1 drop=0 speed=4.49x    frame= 1938 fps=108 q=32.0 size=    3985kB time=00:01:21.00 bitrate= 403.1kbits/s dup=1 drop=0 speed=4.53x    frame= 1993 fps=108 q=32.0 size=    4105kB time=00:01:23.26 bitrate= 403.9kbits/s dup=1 drop=0 speed=4.52x    frame= 2023 fps=107 q=32.0 size=    4215kB time=00:01:24.54 bitrate= 408.4kbits/s dup=1 drop=0 speed=4.46x    frame= 2055 fps=106 q=32.0 size=    4353kB time=00:01:25.86 bitrate= 415.3kbits/s dup=1 drop=0 speed=4.41x    frame= 2091 fps=105 q=32.0 size=    4504kB time=00:01:27.36 bitrate= 422.3kbits/s dup=1 drop=0 speed=4.37x    frame= 2139 fps=104 q=32.0 size=    4639kB time=00:01:29.36 bitrate= 425.3kbits/s dup=1 drop=0 speed=4.36x    frame= 2213 fps=105 q=32.0 size=    4746kB time=00:01:32.48 bitrate= 420.4kbits/s dup=1 drop=0 speed= 4.4x    frame= 2329 fps=108 q=32.0 size=    4852kB time=00:01:37.25 bitrate= 408.6kbits/s dup=1 drop=0 speed=4.52x    frame= 2407 fps=109 q=32.0 size=    4914kB time=00:01:40.54 bitrate= 400.4kbits/s dup=1 drop=0 speed=4.57x    frame= 2448 fps=109 q=32.0 size=    4997kB time=00:01:42.25 bitrate= 400.3kbits/s dup=1 drop=0 speed=4.54x    frame= 2487 fps=108 q=32.0 size=    5080kB time=00:01:43.91 bitrate= 400.5kbits/s dup=1 drop=0 speed=4.51x    frame= 2535 fps=108 q=32.0 size=    5179kB time=00:01:45.87 bitrate= 400.7kbits/s dup=1 drop=0 speed= 4.5x    frame= 2588 fps=108 q=32.0 size=    5291kB time=00:01:48.09 bitrate= 401.0kbits/s dup=1 drop=0 speed=4.49x    frame= 2662 fps=108 q=32.0 size=    5384kB time=00:01:51.21 bitrate= 396.6kbits/s dup=1 drop=0 speed=4.53x    frame= 2766 fps=110 q=32.0 size=    5454kB time=00:01:55.52 bitrate= 386.8kbits/s dup=1 drop=0 speed=4.61x    frame= 2813 fps=110 q=32.0 size=    5552kB time=00:01:57.48 bitrate= 387.1kbits/s dup=1 drop=0 speed=4.59x    frame= 2858 fps=110 q=32.0 size=    5676kB time=00:01:59.36 bitrate= 389.6kbits/s dup=1 drop=0 speed=4.58x    frame= 2908 fps=109 q=32.0 size=    5783kB time=00:02:01.45 bitrate= 390.0kbits/s dup=1 drop=0 speed=4.57x    frame= 3028 fps=112 q=32.0 size=    5858kB time=00:02:06.44 bitrate= 379.5kbits/s dup=1 drop=0 speed=4.67x    frame= 3099 fps=112 q=32.0 size=    5983kB time=00:02:09.38 bitrate= 378.8kbits/s dup=1 drop=0 speed=4.69x    frame= 3147 fps=112 q=32.0 size=    6085kB time=00:02:11.43 bitrate= 379.3kbits/s dup=1 drop=0 speed=4.67x    frame= 3218 fps=112 q=32.0 size=    6167kB time=00:02:14.37 bitrate= 375.9kbits/s dup=1 drop=0 speed=4.69x    frame= 3296 fps=113 q=32.0 size=    6268kB time=00:02:17.62 bitrate= 373.1kbits/s dup=1 drop=0 speed=4.72x    frame= 3350 fps=113 q=32.0 size=    6379kB time=00:02:19.88 bitrate= 373.6kbits/s dup=1 drop=0 speed=4.72x    frame= 3405 fps=113 q=32.0 size=    6510kB time=00:02:22.18 bitrate= 375.1kbits/s dup=1 drop=0 speed=4.72x    frame= 3477 fps=113 q=32.0 size=    6642kB time=00:02:25.17 bitrate= 374.8kbits/s dup=1 drop=0 speed=4.74x    frame= 3553 fps=114 q=32.0 size=    6764kB time=00:02:28.37 bitrate= 373.4kbits/s dup=1 drop=0 speed=4.76x    frame= 3607 fps=114 q=32.0 size=    6861kB time=00:02:30.59 bitrate= 373.2kbits/s dup=1 drop=0 speed=4.76x    frame= 3665 fps=114 q=32.0 size=    6960kB time=00:02:33.02 bitrate= 372.6kbits/s dup=1 drop=0 speed=4.76x    frame= 3738 fps=114 q=32.0 size=    7070kB time=00:02:36.05 bitrate= 371.1kbits/s dup=1 drop=0 speed=4.77x    frame= 3824 fps=115 q=32.0 size=    7140kB time=00:02:39.63 bitrate= 366.4kbits/s dup=1 drop=0 speed=4.81x    frame= 3881 fps=115 q=32.0 size=    7231kB time=00:02:42.02 bitrate= 365.6kbits/s dup=1 drop=0 speed= 4.8x    frame= 3940 fps=115 q=32.0 size=    7358kB time=00:02:44.50 bitrate= 366.4kbits/s dup=1 drop=0 speed= 4.8x    frame= 4003 fps=115 q=32.0 size=    7464kB time=00:02:47.10 bitrate= 365.9kbits/s dup=1 drop=0 speed=4.81x    frame= 4065 fps=115 q=32.0 size=    7533kB time=00:02:49.70 bitrate= 363.6kbits/s dup=1 drop=0 speed=4.81x    frame= 4117 fps=115 q=32.0 size=    7591kB time=00:02:51.88 bitrate= 361.8kbits/s dup=1 drop=0 speed=4.81x    frame= 4166 fps=115 q=32.0 size=    7649kB time=00:02:53.93 bitrate= 360.3kbits/s dup=1 drop=0 speed= 4.8x    frame= 4225 fps=115 q=32.0 size=    7732kB time=00:02:56.36 bitrate= 359.1kbits/s dup=1 drop=0 speed= 4.8x    frame= 4277 fps=115 q=32.0 size=    7799kB time=00:02:58.53 bitrate= 357.9kbits/s dup=1 drop=0 speed=4.79x    frame= 4356 fps=115 q=32.0 size=    7919kB time=00:03:01.82 bitrate= 356.8kbits/s dup=1 drop=0 speed=4.81x    frame= 4436 fps=116 q=32.0 size=    7980kB time=00:03:05.19 bitrate= 353.0kbits/s dup=1 drop=0 speed=4.84x    frame= 4511 fps=116 q=32.0 size=    8041kB time=00:03:08.31 bitrate= 349.8kbits/s dup=1 drop=0 speed=4.86x    frame= 4584 fps=117 q=32.0 size=    8139kB time=00:03:11.33 bitrate= 348.5kbits/s dup=1 drop=0 speed=4.87x    frame= 4668 fps=117 q=32.0 size=    8242kB time=00:03:14.83 bitrate= 346.5kbits/s dup=1 drop=0 speed= 4.9x    frame= 4738 fps=118 q=32.0 size=    8327kB time=00:03:17.78 bitrate= 344.9kbits/s dup=1 drop=0 speed=4.91x    frame= 4803 fps=118 q=32.0 size=    8419kB time=00:03:20.47 bitrate= 344.0kbits/s dup=1 drop=0 speed=4.91x    frame= 4872 fps=118 q=32.0 size=    8512kB time=00:03:23.37 bitrate= 342.9kbits/s dup=1 drop=0 speed=4.93x    frame= 4961 fps=119 q=32.0 size=    8626kB time=00:03:27.08 bitrate= 341.2kbits/s dup=1 drop=0 speed=4.95x    frame= 5047 fps=119 q=32.0 size=    8713kB time=00:03:30.66 bitrate= 338.8kbits/s dup=1 drop=0 speed=4.98x    frame= 5101 fps=119 q=32.0 size=    8811kB time=00:03:32.88 bitrate= 339.1kbits/s dup=1 drop=0 speed=4.97x    frame= 5154 fps=119 q=32.0 size=    8889kB time=00:03:35.14 bitrate= 338.5kbits/s dup=1 drop=0 speed=4.97x    frame= 5231 fps=119 q=32.0 size=    9015kB time=00:03:38.34 bitrate= 338.2kbits/s dup=1 drop=0 speed=4.98x    frame= 5315 fps=120 q=32.0 size=    9085kB time=00:03:41.84 bitrate= 335.5kbits/s dup=1 drop=0 speed=5.01x    frame= 5402 fps=121 q=32.0 size=    9190kB time=00:03:45.43 bitrate= 334.0kbits/s dup=1 drop=0 speed=5.03x    frame= 5480 fps=121 q=32.0 size=    9269kB time=00:03:48.71 bitrate= 332.0kbits/s dup=1 drop=0 speed=5.05x    frame= 5551 fps=121 q=32.0 size=    9428kB time=00:03:51.65 bitrate= 333.4kbits/s dup=1 drop=0 speed=5.05x    frame= 5636 fps=122 q=32.0 size=    9507kB time=00:03:55.24 bitrate= 331.1kbits/s dup=1 drop=0 speed=5.08x    frame= 5722 fps=122 q=32.0 size=    9612kB time=00:03:58.82 bitrate= 329.7kbits/s dup=1 drop=0 speed= 5.1x    frame= 5814 fps=123 q=32.0 size=    9677kB time=00:04:02.62 bitrate= 326.7kbits/s dup=1 drop=0 speed=5.12x    frame= 5895 fps=123 q=32.0 size=    9780kB time=00:04:06.03 bitrate= 325.6kbits/s dup=1 drop=0 speed=5.14x    frame= 5965 fps=123 q=32.0 size=    9872kB time=00:04:08.93 bitrate= 324.9kbits/s dup=1 drop=0 speed=5.15x    frame= 6023 fps=123 q=32.0 size=    9986kB time=00:04:11.37 bitrate= 325.5kbits/s dup=1 drop=0 speed=5.14x    frame= 6101 fps=124 q=32.0 size=   10098kB time=00:04:14.61 bitrate= 324.9kbits/s dup=1 drop=0 speed=5.15x    frame= 6177 fps=124 q=32.0 size=   10166kB time=00:04:17.77 bitrate= 323.1kbits/s dup=1 drop=0 speed=5.16x    frame= 6251 fps=124 q=32.0 size=   10246kB time=00:04:20.88 bitrate= 321.7kbits/s dup=1 drop=0 speed=5.17x    frame= 6330 fps=124 q=32.0 size=   10344kB time=00:04:24.17 bitrate= 320.8kbits/s dup=1 drop=0 speed=5.19x    frame= 6413 fps=125 q=32.0 size=   10414kB time=00:04:27.62 bitrate= 318.8kbits/s dup=1 drop=0 speed= 5.2x    frame= 6485 fps=125 q=32.0 size=   10503kB time=00:04:30.65 bitrate= 317.9kbits/s dup=1 drop=0 speed=5.21x    frame= 6563 fps=125 q=32.0 size=   10613kB time=00:04:33.89 bitrate= 317.4kbits/s dup=1 drop=0 speed=5.22x    frame= 6647 fps=126 q=32.0 size=   10678kB time=00:04:37.39 bitrate= 315.3kbits/s dup=1 drop=0 speed=5.24x    frame= 6720 fps=126 q=32.0 size=   10775kB time=00:04:40.42 bitrate= 314.8kbits/s dup=1 drop=0 speed=5.25x    frame= 6794 fps=126 q=32.0 size=   10874kB time=00:04:43.54 bitrate= 314.2kbits/s dup=1 drop=0 speed=5.25x    frame= 6865 fps=126 q=32.0 size=   10968kB time=00:04:46.48 bitrate= 313.6kbits/s dup=1 drop=0 speed=5.26x    frame= 6921 fps=126 q=32.0 size=   11052kB time=00:04:48.83 bitrate= 313.5kbits/s dup=1 drop=0 speed=5.26x    frame= 7003 fps=126 q=32.0 size=   11161kB time=00:04:52.24 bitrate= 312.8kbits/s dup=1 drop=0 speed=5.27x    frame= 7075 fps=126 q=32.0 size=   11246kB time=00:04:55.23 bitrate= 312.0kbits/s dup=1 drop=0 speed=5.28x    frame= 7154 fps=127 q=32.0 size=   11311kB time=00:04:58.51 bitrate= 310.4kbits/s dup=1 drop=0 speed=5.29x    frame= 7228 fps=127 q=32.0 size=   11402kB time=00:05:01.63 bitrate= 309.7kbits/s dup=1 drop=0 speed=5.29x    frame= 7274 fps=127 q=32.0 size=   11476kB time=00:05:03.55 bitrate= 309.7kbits/s dup=1 drop=0 speed=5.28x    frame= 7357 fps=127 q=32.0 size=   11567kB time=00:05:07.00 bitrate= 308.6kbits/s dup=1 drop=0 speed=5.29x    frame= 7424 fps=127 q=32.0 size=   11657kB time=00:05:09.78 bitrate= 308.3kbits/s dup=1 drop=0 speed=5.29x    frame= 7496 fps=127 q=32.0 size=   11753kB time=00:05:12.81 bitrate= 307.8kbits/s dup=1 drop=0 speed= 5.3x    frame= 7567 fps=127 q=32.0 size=   11833kB time=00:05:15.75 bitrate= 307.0kbits/s dup=1 drop=0 speed=5.31x    frame= 7619 fps=127 q=32.0 size=   11959kB time=00:05:17.93 bitrate= 308.1kbits/s dup=1 drop=0 speed= 5.3x    frame= 7668 fps=127 q=32.0 size=   12055kB time=00:05:19.97 bitrate= 308.6kbits/s dup=1 drop=0 speed=5.29x    frame= 7728 fps=127 q=32.0 size=   12173kB time=00:05:22.49 bitrate= 309.2kbits/s dup=1 drop=0 speed=5.28x    frame= 7818 fps=127 q=32.0 size=   12254kB time=00:05:26.25 bitrate= 307.7kbits/s dup=1 drop=0 speed= 5.3x    frame= 7892 fps=127 q=32.0 size=   12367kB time=00:05:29.32 bitrate= 307.6kbits/s dup=1 drop=0 speed=5.31x    frame= 7971 fps=127 q=32.0 size=   12479kB time=00:05:32.60 bitrate= 307.4kbits/s dup=1 drop=0 speed=5.32x    frame= 8054 fps=128 q=32.0 size=   12604kB time=00:05:36.06 bitrate= 307.2kbits/s dup=1 drop=0 speed=5.33x    frame= 8144 fps=128 q=32.0 size=   12708kB time=00:05:39.81 bitrate= 306.3kbits/s dup=1 drop=0 speed=5.35x    frame= 8221 fps=128 q=32.0 size=   12780kB time=00:05:43.01 bitrate= 305.2kbits/s dup=1 drop=0 speed=5.35x    frame= 8318 fps=129 q=32.0 size=   12879kB time=00:05:47.07 bitrate= 304.0kbits/s dup=1 drop=0 speed=5.37x    frame= 8399 fps=129 q=32.0 size=   12997kB time=00:05:50.48 bitrate= 303.8kbits/s dup=1 drop=0 speed=5.39x    frame= 8479 fps=129 q=32.0 size=   13075kB time=00:05:53.81 bitrate= 302.7kbits/s dup=1 drop=0 speed=5.39x    frame= 8545 fps=129 q=32.0 size=   13140kB time=00:05:56.58 bitrate= 301.9kbits/s dup=1 drop=0 speed= 5.4x    frame= 8591 fps=129 q=32.0 size=   13272kB time=00:05:58.46 bitrate= 303.3kbits/s dup=1 drop=0 speed=5.38x    frame= 8639 fps=129 q=32.0 size=   13385kB time=00:06:00.47 bitrate= 304.2kbits/s dup=1 drop=0 speed=5.37x    frame= 8683 fps=128 q=32.0 size=   13492kB time=00:06:02.30 bitrate= 305.1kbits/s dup=1 drop=0 speed=5.36x    frame= 8752 fps=129 q=32.0 size=   13557kB time=00:06:05.16 bitrate= 304.1kbits/s dup=1 drop=0 speed=5.36x    frame= 8825 fps=129 q=32.0 size=   13652kB time=00:06:08.23 bitrate= 303.7kbits/s dup=1 drop=0 speed=5.37x    frame= 8890 fps=129 q=32.0 size=   13743kB time=00:06:10.92 bitrate= 303.5kbits/s dup=1 drop=0 speed=5.36x    frame= 8952 fps=129 q=32.0 size=   13851kB time=00:06:13.52 bitrate= 303.8kbits/s dup=1 drop=0 speed=5.36x    frame= 9016 fps=129 q=32.0 size=   13931kB time=00:06:16.21 bitrate= 303.4kbits/s dup=1 drop=0 speed=5.36x    frame= 9081 fps=128 q=32.0 size=   14027kB time=00:06:18.90 bitrate= 303.3kbits/s dup=1 drop=0 speed=5.36x    frame= 9151 fps=129 q=32.0 size=   14118kB time=00:06:21.84 bitrate= 302.9kbits/s dup=1 drop=0 speed=5.36x    frame= 9219 fps=129 q=32.0 size=   14201kB time=00:06:24.66 bitrate= 302.4kbits/s dup=1 drop=0 speed=5.37x    frame= 9276 fps=128 q=32.0 size=   14340kB time=00:06:27.05 bitrate= 303.5kbits/s dup=1 drop=0 speed=5.36x    frame= 9364 fps=129 q=32.0 size=   14452kB time=00:06:30.72 bitrate= 303.0kbits/s dup=1 drop=0 speed=5.37x    frame= 9453 fps=129 q=32.0 size=   14560kB time=00:06:34.43 bitrate= 302.4kbits/s dup=1 drop=0 speed=5.39x    frame= 9546 fps=130 q=32.0 size=   14630kB time=00:06:38.31 bitrate= 300.9kbits/s dup=1 drop=0 speed= 5.4x    frame= 9634 fps=130 q=32.0 size=   14724kB time=00:06:41.98 bitrate= 300.1kbits/s dup=1 drop=0 speed=5.42x    frame= 9710 fps=130 q=32.0 size=   14837kB time=00:06:45.14 bitrate= 300.0kbits/s dup=1 drop=0 speed=5.42x    frame= 9769 fps=130 q=32.0 size=   14925kB time=00:06:47.61 bitrate= 299.9kbits/s dup=1 drop=0 speed=5.42x    frame= 9842 fps=130 q=32.0 size=   15061kB time=00:06:50.64 bitrate= 300.4kbits/s dup=1 drop=0 speed=5.42x    frame= 9914 fps=130 q=32.0 size=   15141kB time=00:06:53.67 bitrate= 299.8kbits/s dup=1 drop=0 speed=5.42x    frame=10007 fps=130 q=32.0 size=   15284kB time=00:06:57.51 bitrate= 299.9kbits/s dup=1 drop=0 speed=5.44x    frame=10110 fps=131 q=32.0 size=   15385kB time=00:07:01.82 bitrate= 298.8kbits/s dup=1 drop=0 speed=5.46x    frame=10166 fps=131 q=32.0 size=   15474kB time=00:07:04.17 bitrate= 298.8kbits/s dup=1 drop=0 speed=5.45x    frame=10257 fps=131 q=32.0 size=   15589kB time=00:07:07.96 bitrate= 298.4kbits/s dup=1 drop=0 speed=5.46x    frame=10353 fps=131 q=32.0 size=   15692kB time=00:07:11.97 bitrate= 297.6kbits/s dup=1 drop=0 speed=5.48x    frame=10450 fps=132 q=32.0 size=   15826kB time=00:07:15.99 bitrate= 297.4kbits/s dup=1 drop=0 speed=5.49x    frame=10527 fps=132 q=32.0 size=   15931kB time=00:07:19.23 bitrate= 297.1kbits/s dup=1 drop=0 speed= 5.5x    frame=10579 fps=132 q=32.0 size=   15997kB time=00:07:21.36 bitrate= 296.9kbits/s dup=1 drop=0 speed=5.49x    frame=10623 fps=131 q=32.0 size=   16145kB time=00:07:23.24 bitrate= 298.4kbits/s dup=1 drop=0 speed=5.48x    frame=10667 fps=131 q=32.0 size=   16270kB time=00:07:25.03 bitrate= 299.5kbits/s dup=1 drop=0 speed=5.47x    frame=10751 fps=131 q=32.0 size=   16351kB time=00:07:28.57 bitrate= 298.6kbits/s dup=1 drop=0 speed=5.48x    frame=10834 fps=131 q=32.0 size=   16473kB time=00:07:31.99 bitrate= 298.6kbits/s dup=1 drop=0 speed=5.48x    frame=10915 fps=132 q=32.0 size=   16599kB time=00:07:35.40 bitrate= 298.6kbits/s dup=1 drop=0 speed=5.49x    frame=10996 fps=132 q=32.0 size=   16706kB time=00:07:38.77 bitrate= 298.3kbits/s dup=1 drop=0 speed= 5.5x    frame=11078 fps=132 q=32.0 size=   16810kB time=00:07:42.23 bitrate= 297.9kbits/s dup=1 drop=0 speed=5.51x    frame=11164 fps=132 q=32.0 size=   16928kB time=00:07:45.77 bitrate= 297.7kbits/s dup=1 drop=0 speed=5.52x    frame=11267 fps=133 q=32.0 size=   16994kB time=00:07:50.08 bitrate= 296.2kbits/s dup=1 drop=0 speed=5.53x    frame=11359 fps=133 q=32.0 size=   17107kB time=00:07:53.92 bitrate= 295.7kbits/s dup=1 drop=0 speed=5.55x    frame=11451 fps=133 q=32.0 size=   17195kB time=00:07:57.76 bitrate= 294.8kbits/s dup=1 drop=0 speed=5.56x    frame=11555 fps=134 q=32.0 size=   17309kB time=00:08:02.07 bitrate= 294.1kbits/s dup=1 drop=0 speed=5.58x    frame=11646 fps=134 q=32.0 size=   17387kB time=00:08:05.91 bitrate= 293.1kbits/s dup=1 drop=0 speed=5.59x    frame=11719 fps=134 q=32.0 size=   17503kB time=00:08:08.93 bitrate= 293.3kbits/s dup=1 drop=0 speed=5.59x    frame=11787 fps=134 q=32.0 size=   17602kB time=00:08:11.79 bitrate= 293.2kbits/s dup=1 drop=0 speed=5.59x    frame=11870 fps=134 q=32.0 size=   17688kB time=00:08:15.25 bitrate= 292.6kbits/s dup=1 drop=0 speed= 5.6x    frame=11959 fps=134 q=32.0 size=   17788kB time=00:08:18.96 bitrate= 292.0kbits/s dup=1 drop=0 speed=5.61x    frame=12044 fps=135 q=32.0 size=   17865kB time=00:08:22.50 bitrate= 291.2kbits/s dup=1 drop=0 speed=5.61x    frame=12113 fps=135 q=32.0 size=   17959kB time=00:08:25.40 bitrate= 291.1kbits/s dup=1 drop=0 speed=5.62x    frame=12188 fps=135 q=32.0 size=   18050kB time=00:08:28.52 bitrate= 290.8kbits/s dup=1 drop=0 speed=5.62x    frame=12261 fps=135 q=32.0 size=   18165kB time=00:08:31.55 bitrate= 290.9kbits/s dup=1 drop=0 speed=5.62x    frame=12354 fps=135 q=32.0 size=   18271kB time=00:08:35.43 bitrate= 290.4kbits/s dup=1 drop=0 speed=5.63x    frame=12433 fps=135 q=32.0 size=   18358kB time=00:08:38.72 bitrate= 289.9kbits/s dup=1 drop=0 speed=5.64x    frame=12488 fps=135 q=32.0 size=   18421kB time=00:08:41.02 bitrate= 289.6kbits/s dup=1 drop=0 speed=5.63x    frame=12541 fps=135 q=32.0 size=   18541kB time=00:08:43.24 bitrate= 290.3kbits/s dup=1 drop=0 speed=5.62x    frame=12649 fps=135 q=32.0 size=   18657kB time=00:08:47.72 bitrate= 289.6kbits/s dup=1 drop=0 speed=5.64x    frame=12745 fps=136 q=32.0 size=   18733kB time=00:08:51.73 bitrate= 288.6kbits/s dup=1 drop=0 speed=5.65x    frame=12805 fps=135 q=32.0 size=   18814kB time=00:08:54.25 bitrate= 288.5kbits/s dup=1 drop=0 speed=5.65x    frame=12886 fps=136 q=32.0 size=   18927kB time=00:08:57.57 bitrate= 288.4kbits/s dup=1 drop=0 speed=5.66x    frame=12970 fps=136 q=32.0 size=   19005kB time=00:09:01.12 bitrate= 287.7kbits/s dup=1 drop=0 speed=5.66x    frame=13050 fps=136 q=32.0 size=   19080kB time=00:09:04.44 bitrate= 287.1kbits/s dup=1 drop=0 speed=5.67x    frame=13133 fps=136 q=32.0 size=   19150kB time=00:09:07.90 bitrate= 286.3kbits/s dup=1 drop=0 speed=5.67x    frame=13197 fps=136 q=32.0 size=   19253kB time=00:09:10.59 bitrate= 286.5kbits/s dup=1 drop=0 speed=5.67x    frame=13258 fps=136 q=32.0 size=   19359kB time=00:09:13.11 bitrate= 286.7kbits/s dup=1 drop=0 speed=5.67x    frame=13347 fps=136 q=32.0 size=   19440kB time=00:09:16.86 bitrate= 286.0kbits/s dup=1 drop=0 speed=5.68x    frame=13433 fps=136 q=32.0 size=   19502kB time=00:09:20.40 bitrate= 285.1kbits/s dup=1 drop=0 speed=5.68x    frame=13494 fps=136 q=32.0 size=   19589kB time=00:09:22.96 bitrate= 285.1kbits/s dup=1 drop=0 speed=5.68x    frame=13544 fps=136 q=32.0 size=   19681kB time=00:09:25.05 bitrate= 285.3kbits/s dup=1 drop=0 speed=5.67x    frame=13615 fps=136 q=32.0 size=   19811kB time=00:09:28.00 bitrate= 285.7kbits/s dup=1 drop=0 speed=5.67x    frame=13710 fps=136 q=32.0 size=   19884kB time=00:09:31.96 bitrate= 284.8kbits/s dup=1 drop=0 speed=5.69x    frame=13782 fps=136 q=32.0 size=   20006kB time=00:09:34.99 bitrate= 285.0kbits/s dup=1 drop=0 speed=5.69x    frame=13842 fps=136 q=32.0 size=   20102kB time=00:09:37.47 bitrate= 285.2kbits/s dup=1 drop=0 speed=5.68x    frame=13910 fps=136 q=32.0 size=   20191kB time=00:09:40.33 bitrate= 285.0kbits/s dup=1 drop=0 speed=5.68x    frame=13963 fps=136 q=32.0 size=   20294kB time=00:09:42.50 bitrate= 285.4kbits/s dup=1 drop=0 speed=5.68x    frame=14009 fps=136 q=32.0 size=   20389kB time=00:09:44.42 bitrate= 285.8kbits/s dup=1 drop=0 speed=5.67x    frame=14070 fps=136 q=32.0 size=   20504kB time=00:09:46.98 bitrate= 286.2kbits/s dup=1 drop=0 speed=5.66x    frame=14120 fps=136 q=32.0 size=   20611kB time=00:09:49.12 bitrate= 286.6kbits/s dup=1 drop=0 speed=5.66x    frame=14194 fps=136 q=32.0 size=   20722kB time=00:09:52.19 bitrate= 286.7kbits/s dup=1 drop=0 speed=5.66x    frame=14272 fps=136 q=32.0 size=   20840kB time=00:09:55.43 bitrate= 286.7kbits/s dup=1 drop=0 speed=5.66x    frame=14360 fps=136 q=32.0 size=   20905kB time=00:09:59.10 bitrate= 285.8kbits/s dup=1 drop=0 speed=5.67x    frame=14431 fps=136 q=32.0 size=   21008kB time=00:10:02.04 bitrate= 285.8kbits/s dup=1 drop=0 speed=5.67x    frame=14476 fps=136 q=32.0 size=   21075kB time=00:10:03.92 bitrate= 285.9kbits/s dup=1 drop=0 speed=5.66x    frame=14531 fps=136 q=32.0 size=   21151kB time=00:10:06.23 bitrate= 285.8kbits/s dup=1 drop=0 speed=5.65x    frame=14591 fps=135 q=32.0 size=   21249kB time=00:10:08.74 bitrate= 286.0kbits/s dup=1 drop=0 speed=5.65x    frame=14677 fps=136 q=32.0 size=   21309kB time=00:10:12.33 bitrate= 285.1kbits/s dup=1 drop=0 speed=5.66x    frame=14743 fps=136 q=32.0 size=   21419kB time=00:10:15.06 bitrate= 285.3kbits/s dup=1 drop=0 speed=5.65x    frame=14796 fps=135 q=32.0 size=   21489kB time=00:10:17.32 bitrate= 285.2kbits/s dup=1 drop=0 speed=5.65x    frame=14848 fps=135 q=32.0 size=   21557kB time=00:10:19.45 bitrate= 285.1kbits/s dup=1 drop=0 speed=5.64x    frame=14902 fps=135 q=32.0 size=   21624kB time=00:10:21.67 bitrate= 284.9kbits/s dup=1 drop=0 speed=5.64x    frame=14974 fps=135 q=32.0 size=   21719kB time=00:10:24.70 bitrate= 284.8kbits/s dup=1 drop=0 speed=5.64x    frame=15060 fps=135 q=32.0 size=   21783kB time=00:10:28.28 bitrate= 284.0kbits/s dup=1 drop=0 speed=5.64x    frame=15147 fps=135 q=32.0 size=   21851kB time=00:10:31.91 bitrate= 283.3kbits/s dup=1 drop=0 speed=5.65x    frame=15223 fps=135 q=32.0 size=   21944kB time=00:10:35.07 bitrate= 283.1kbits/s dup=1 drop=0 speed=5.65x    frame=15290 fps=135 q=32.0 size=   22033kB time=00:10:37.84 bitrate= 283.0kbits/s dup=1 drop=0 speed=5.65x    frame=15341 fps=135 q=32.0 size=   22089kB time=00:10:40.02 bitrate= 282.7kbits/s dup=1 drop=0 speed=5.65x    frame=15387 fps=135 q=32.0 size=   22167kB time=00:10:41.94 bitrate= 282.9kbits/s dup=1 drop=0 speed=5.64x    frame=15437 fps=135 q=32.0 size=   22242kB time=00:10:43.99 bitrate= 282.9kbits/s dup=1 drop=0 speed=5.63x    frame=15490 fps=135 q=32.0 size=   22317kB time=00:10:46.20 bitrate= 282.9kbits/s dup=1 drop=0 speed=5.63x    frame=15570 fps=135 q=32.0 size=   22413kB time=00:10:49.53 bitrate= 282.7kbits/s dup=1 drop=0 speed=5.63x    frame=15647 fps=135 q=32.0 size=   22469kB time=00:10:52.77 bitrate= 282.0kbits/s dup=1 drop=0 speed=5.63x    frame=15722 fps=135 q=32.0 size=   22572kB time=00:10:55.93 bitrate= 281.9kbits/s dup=1 drop=0 speed=5.64x    frame=15818 fps=135 q=32.0 size=   22643kB time=00:10:59.90 bitrate= 281.1kbits/s dup=1 drop=0 speed=5.65x    frame=15893 fps=135 q=32.0 size=   22695kB time=00:11:03.01 bitrate= 280.4kbits/s dup=1 drop=0 speed=5.65x    frame=15948 fps=135 q=32.0 size=   22837kB time=00:11:05.32 bitrate= 281.2kbits/s dup=1 drop=0 speed=5.64x    frame=16008 fps=135 q=32.0 size=   22908kB time=00:11:07.84 bitrate= 281.0kbits/s dup=1 drop=0 speed=5.64x    frame=16105 fps=135 q=32.0 size=   22974kB time=00:11:11.89 bitrate= 280.1kbits/s dup=1 drop=0 speed=5.65x    frame=16180 fps=136 q=32.0 size=   23066kB time=00:11:15.00 bitrate= 279.9kbits/s dup=1 drop=0 speed=5.65x    frame=16243 fps=135 q=32.0 size=   23144kB time=00:11:17.61 bitrate= 279.8kbits/s dup=1 drop=0 speed=5.65x    frame=16301 fps=135 q=32.0 size=   23231kB time=00:11:20.04 bitrate= 279.8kbits/s dup=1 drop=0 speed=5.65x    frame=16345 fps=135 q=32.0 size=   23311kB time=00:11:21.87 bitrate= 280.1kbits/s dup=1 drop=0 speed=5.64x    frame=16387 fps=135 q=32.0 size=   23400kB time=00:11:23.62 bitrate= 280.4kbits/s dup=1 drop=0 speed=5.63x    frame=16470 fps=135 q=32.0 size=   23535kB time=00:11:27.08 bitrate= 280.6kbits/s dup=1 drop=0 speed=5.63x    frame=16555 fps=135 q=32.0 size=   23596kB time=00:11:30.66 bitrate= 279.9kbits/s dup=1 drop=0 speed=5.64x    frame=16635 fps=135 q=32.0 size=   23662kB time=00:11:33.99 bitrate= 279.3kbits/s dup=1 drop=0 speed=5.64x    frame=16731 fps=136 q=32.0 size=   23772kB time=00:11:38.00 bitrate= 279.0kbits/s dup=1 drop=0 speed=5.65x    frame=16807 fps=136 q=32.0 size=   23855kB time=00:11:41.16 bitrate= 278.7kbits/s dup=1 drop=0 speed=5.66x    frame=16892 fps=136 q=32.0 size=   23965kB time=00:11:44.66 bitrate= 278.6kbits/s dup=1 drop=0 speed=5.66x    frame=16977 fps=136 q=32.0 size=   24039kB time=00:11:48.24 bitrate= 278.1kbits/s dup=1 drop=0 speed=5.67x    frame=17059 fps=136 q=32.0 size=   24128kB time=00:11:51.65 bitrate= 277.7kbits/s dup=1 drop=0 speed=5.67x    frame=17116 fps=136 q=32.0 size=   24281kB time=00:11:54.04 bitrate= 278.6kbits/s dup=1 drop=0 speed=5.67x    frame=17187 fps=136 q=32.0 size=   24412kB time=00:11:56.99 bitrate= 278.9kbits/s dup=1 drop=0 speed=5.67x    frame=17278 fps=136 q=32.0 size=   24568kB time=00:12:00.79 bitrate= 279.2kbits/s dup=1 drop=0 speed=5.67x    frame=17350 fps=136 q=32.0 size=   24711kB time=00:12:03.77 bitrate= 279.7kbits/s dup=1 drop=0 speed=5.67x    frame=17416 fps=136 q=32.0 size=   24804kB time=00:12:06.50 bitrate= 279.7kbits/s dup=1 drop=0 speed=5.67x    frame=17486 fps=136 q=32.0 size=   24921kB time=00:12:09.49 bitrate= 279.9kbits/s dup=1 drop=0 speed=5.67x    frame=17556 fps=136 q=32.0 size=   25019kB time=00:12:12.39 bitrate= 279.8kbits/s dup=1 drop=0 speed=5.68x    frame=17603 fps=136 q=32.0 size=   25106kB time=00:12:14.35 bitrate= 280.1kbits/s dup=1 drop=0 speed=5.67x    frame=17646 fps=136 q=32.0 size=   25192kB time=00:12:16.15 bitrate= 280.3kbits/s dup=1 drop=0 speed=5.66x    frame=17709 fps=136 q=32.0 size=   25318kB time=00:12:18.75 bitrate= 280.7kbits/s dup=1 drop=0 speed=5.66x    frame=17799 fps=136 q=32.0 size=   25400kB time=00:12:22.55 bitrate= 280.2kbits/s dup=1 drop=0 speed=5.66x    frame=17888 fps=136 q=32.0 size=   25505kB time=00:12:26.21 bitrate= 280.0kbits/s dup=1 drop=0 speed=5.67x    frame=17971 fps=136 q=32.0 size=   25615kB time=00:12:29.67 bitrate= 279.9kbits/s dup=1 drop=0 speed=5.67x    frame=18051 fps=136 q=32.0 size=   25726kB time=00:12:33.04 bitrate= 279.9kbits/s dup=1 drop=0 speed=5.68x    frame=18134 fps=136 q=32.0 size=   25820kB time=00:12:36.54 bitrate= 279.6kbits/s dup=1 drop=0 speed=5.68x    frame=18221 fps=136 q=32.0 size=   25927kB time=00:12:40.12 bitrate= 279.4kbits/s dup=1 drop=0 speed=5.69x    frame=18285 fps=136 q=32.0 size=   26008kB time=00:12:42.77 bitrate= 279.3kbits/s dup=1 drop=0 speed=5.69x    frame=18354 fps=136 q=32.0 size=   26208kB time=00:12:45.67 bitrate= 280.4kbits/s dup=1 drop=0 speed=5.69x    frame=18423 fps=136 q=32.0 size=   26307kB time=00:12:48.53 bitrate= 280.4kbits/s dup=1 drop=0 speed=5.69x    frame=18474 fps=136 q=32.0 size=   26403kB time=00:12:50.66 bitrate= 280.7kbits/s dup=1 drop=0 speed=5.68x    frame=18534 fps=136 q=32.0 size=   26531kB time=00:12:53.18 bitrate= 281.1kbits/s dup=1 drop=0 speed=5.68x    frame=18618 fps=136 q=32.0 size=   26614kB time=00:12:56.68 bitrate= 280.7kbits/s dup=1 drop=0 speed=5.68x    frame=18684 fps=136 q=32.0 size=   26735kB time=00:12:59.45 bitrate= 281.0kbits/s dup=1 drop=0 speed=5.68x    frame=18766 fps=136 q=32.0 size=   26787kB time=00:13:02.87 bitrate= 280.3kbits/s dup=1 drop=0 speed=5.69x    frame=18808 fps=136 q=32.0 size=   26891kB time=00:13:04.61 bitrate= 280.8kbits/s dup=1 drop=0 speed=5.68x    frame=18853 fps=136 q=32.0 size=   26982kB time=00:13:06.49 bitrate= 281.0kbits/s dup=1 drop=0 speed=5.67x    frame=18929 fps=136 q=32.0 size=   27085kB time=00:13:09.65 bitrate= 281.0kbits/s dup=1 drop=0 speed=5.67x    frame=19004 fps=136 q=32.0 size=   27183kB time=00:13:12.81 bitrate= 280.9kbits/s dup=1 drop=0 speed=5.67x    frame=19090 fps=136 q=32.0 size=   27327kB time=00:13:16.35 bitrate= 281.1kbits/s dup=1 drop=0 speed=5.68x    frame=19181 fps=136 q=32.0 size=   27421kB time=00:13:20.15 bitrate= 280.7kbits/s dup=1 drop=0 speed=5.69x    frame=19244 fps=136 q=32.0 size=   27525kB time=00:13:22.83 bitrate= 280.9kbits/s dup=1 drop=0 speed=5.68x    frame=19351 fps=137 q=32.0 size=   27620kB time=00:13:27.27 bitrate= 280.3kbits/s dup=1 drop=0 speed= 5.7x    frame=19450 fps=137 q=32.0 size=   27738kB time=00:13:31.37 bitrate= 280.1kbits/s dup=1 drop=0 speed= 5.7x    frame=19522 fps=137 q=32.0 size=   27799kB time=00:13:34.40 bitrate= 279.6kbits/s dup=1 drop=0 speed=5.71x    frame=19597 fps=137 q=32.0 size=   27886kB time=00:13:37.51 bitrate= 279.4kbits/s dup=1 drop=0 speed=5.71x    frame=19667 fps=137 q=32.0 size=   27996kB time=00:13:40.45 bitrate= 279.5kbits/s dup=1 drop=0 speed=5.71x    frame=19741 fps=137 q=32.0 size=   28083kB time=00:13:43.53 bitrate= 279.4kbits/s dup=1 drop=0 speed=5.71x    frame=19785 fps=137 q=32.0 size=   28157kB time=00:13:45.36 bitrate= 279.5kbits/s dup=1 drop=0 speed= 5.7x    frame=19824 fps=136 q=32.0 size=   28280kB time=00:13:46.98 bitrate= 280.1kbits/s dup=1 drop=0 speed=5.69x    frame=19907 fps=137 q=32.0 size=   28407kB time=00:13:50.44 bitrate= 280.2kbits/s dup=1 drop=0 speed= 5.7x    frame=19966 fps=136 q=32.0 size=   28477kB time=00:13:52.91 bitrate= 280.1kbits/s dup=1 drop=0 speed=5.69x    frame=20031 fps=136 q=32.0 size=   28571kB time=00:13:55.60 bitrate= 280.1kbits/s dup=1 drop=0 speed=5.69x    frame=20095 fps=136 q=32.0 size=   28674kB time=00:13:58.29 bitrate= 280.2kbits/s dup=1 drop=0 speed=5.69x    frame=20160 fps=136 q=32.0 size=   28748kB time=00:14:01.02 bitrate= 280.0kbits/s dup=1 drop=0 speed=5.69x    frame=20214 fps=136 q=32.0 size=   28864kB time=00:14:03.24 bitrate= 280.4kbits/s dup=1 drop=0 speed=5.68x    frame=20276 fps=136 q=32.0 size=   28962kB time=00:14:05.84 bitrate= 280.5kbits/s dup=1 drop=0 speed=5.68x    frame=20321 fps=136 q=32.0 size=   29105kB time=00:14:07.72 bitrate= 281.3kbits/s dup=1 drop=0 speed=5.67x    frame=20364 fps=136 q=32.0 size=   29230kB time=00:14:09.51 bitrate= 281.9kbits/s dup=1 drop=0 speed=5.67x    frame=20414 fps=136 q=32.0 size=   29375kB time=00:14:11.60 bitrate= 282.6kbits/s dup=1 drop=0 speed=5.66x    frame=20476 fps=136 q=32.0 size=   29499kB time=00:14:14.16 bitrate= 282.9kbits/s dup=1 drop=0 speed=5.66x    frame=20535 fps=136 q=32.0 size=   29610kB time=00:14:16.64 bitrate= 283.2kbits/s dup=1 drop=0 speed=5.66x    frame=20591 fps=136 q=32.0 size=   29699kB time=00:14:18.98 bitrate= 283.2kbits/s dup=1 drop=0 speed=5.65x    frame=20639 fps=135 q=32.0 size=   29787kB time=00:14:20.99 bitrate= 283.4kbits/s dup=1 drop=0 speed=5.65x    frame=20685 fps=135 q=32.0 size=   29894kB time=00:14:22.91 bitrate= 283.8kbits/s dup=1 drop=0 speed=5.64x    frame=20734 fps=135 q=32.0 size=   29974kB time=00:14:24.91 bitrate= 283.9kbits/s dup=1 drop=0 speed=5.64x    frame=20805 fps=135 q=32.0 size=   30084kB time=00:14:27.90 bitrate= 284.0kbits/s dup=1 drop=0 speed=5.64x    frame=20867 fps=135 q=32.0 size=   30174kB time=00:14:30.46 bitrate= 284.0kbits/s dup=1 drop=0 speed=5.64x    frame=20937 fps=135 q=32.0 size=   30278kB time=00:14:33.40 bitrate= 284.0kbits/s dup=1 drop=0 speed=5.64x    frame=21008 fps=135 q=32.0 size=   30388kB time=00:14:36.35 bitrate= 284.1kbits/s dup=1 drop=0 speed=5.64x    frame=21109 fps=135 q=32.0 size=   30459kB time=00:14:40.57 bitrate= 283.4kbits/s dup=1 drop=0 speed=5.65x    frame=21189 fps=135 q=32.0 size=   30580kB time=00:14:43.90 bitrate= 283.4kbits/s dup=1 drop=0 speed=5.65x    frame=21249 fps=135 q=32.0 size=   30710kB time=00:14:46.42 bitrate= 283.8kbits/s dup=1 drop=0 speed=5.65x    frame=21339 fps=135 q=32.0 size=   30818kB time=00:14:50.17 bitrate= 283.6kbits/s dup=1 drop=0 speed=5.65x    frame=21418 fps=136 q=32.0 size=   30920kB time=00:14:53.46 bitrate= 283.5kbits/s dup=1 drop=0 speed=5.65x    frame=21488 fps=136 q=32.0 size=   31014kB time=00:14:56.40 bitrate= 283.4kbits/s dup=1 drop=0 speed=5.65x    frame=21580 fps=136 q=32.0 size=   31084kB time=00:15:00.20 bitrate= 282.9kbits/s dup=1 drop=0 speed=5.66x    frame=21645 fps=136 q=32.0 size=   31170kB time=00:15:02.93 bitrate= 282.8kbits/s dup=1 drop=0 speed=5.66x    frame=21712 fps=136 q=32.0 size=   31267kB time=00:15:05.75 bitrate= 282.8kbits/s dup=1 drop=0 speed=5.66x    frame=21783 fps=136 q=32.0 size=   31367kB time=00:15:08.69 bitrate= 282.8kbits/s dup=1 drop=0 speed=5.66x    frame=21848 fps=136 q=32.0 size=   31457kB time=00:15:11.38 bitrate= 282.8kbits/s dup=1 drop=0 speed=5.66x    frame=21950 fps=136 q=32.0 size=   31527kB time=00:15:15.64 bitrate= 282.1kbits/s dup=1 drop=0 speed=5.67x    frame=22024 fps=136 q=32.0 size=   31632kB time=00:15:18.76 bitrate= 282.0kbits/s dup=1 drop=0 speed=5.67x    frame=22110 fps=136 q=32.0 size=   31726kB time=00:15:22.30 bitrate= 281.8kbits/s dup=1 drop=0 speed=5.67x    frame=22204 fps=136 q=32.0 size=   31823kB time=00:15:26.27 bitrate= 281.4kbits/s dup=1 drop=0 speed=5.68x    frame=22279 fps=136 q=32.0 size=   31937kB time=00:15:29.34 bitrate= 281.5kbits/s dup=1 drop=0 speed=5.68x    frame=22366 fps=136 q=32.0 size=   32018kB time=00:15:33.01 bitrate= 281.1kbits/s dup=1 drop=0 speed=5.69x    frame=22438 fps=136 q=32.0 size=   32120kB time=00:15:36.00 bitrate= 281.1kbits/s dup=1 drop=0 speed=5.69x    frame=22513 fps=136 q=32.0 size=   32177kB time=00:15:39.15 bitrate= 280.7kbits/s dup=1 drop=0 speed=5.69x    frame=22574 fps=136 q=32.0 size=   32267kB time=00:15:41.67 bitrate= 280.7kbits/s dup=1 drop=0 speed=5.69x    frame=22637 fps=136 q=32.0 size=   32354kB time=00:15:44.27 bitrate= 280.7kbits/s dup=1 drop=0 speed=5.68x    frame=22727 fps=136 q=32.0 size=   32415kB time=00:15:48.07 bitrate= 280.1kbits/s dup=1 drop=0 speed=5.69x    frame=22787 fps=136 q=32.0 size=   32571kB time=00:15:50.55 bitrate= 280.7kbits/s dup=1 drop=0 speed=5.69x    frame=22871 fps=136 q=32.0 size=   32637kB time=00:15:54.04 bitrate= 280.2kbits/s dup=1 drop=0 speed=5.69x    frame=22933 fps=136 q=32.0 size=   32709kB time=00:15:56.65 bitrate= 280.1kbits/s dup=1 drop=0 speed=5.69x    frame=22979 fps=136 q=32.0 size=   32848kB time=00:15:58.57 bitrate= 280.7kbits/s dup=1 drop=0 speed=5.68x    frame=23055 fps=136 q=32.0 size=   32910kB time=00:16:01.77 bitrate= 280.3kbits/s dup=1 drop=0 speed=5.69x    frame=23127 fps=136 q=32.0 size=   32986kB time=00:16:04.75 bitrate= 280.1kbits/s dup=1 drop=0 speed=5.69x    frame=23207 fps=136 q=32.0 size=   33084kB time=00:16:08.08 bitrate= 280.0kbits/s dup=1 drop=0 speed=5.69x    frame=23269 fps=136 q=32.0 size=   33180kB time=00:16:10.68 bitrate= 280.0kbits/s dup=1 drop=0 speed=5.69x    frame=23343 fps=136 q=32.0 size=   33255kB time=00:16:13.76 bitrate= 279.8kbits/s dup=1 drop=0 speed=5.69x    frame=23424 fps=136 q=32.0 size=   33352kB time=00:16:17.13 bitrate= 279.6kbits/s dup=1 drop=0 speed=5.69x    frame=23520 fps=137 q=32.0 size=   33409kB time=00:16:21.18 bitrate= 278.9kbits/s dup=1 drop=0 speed= 5.7x    frame=23591 fps=137 q=32.0 size=   33521kB time=00:16:24.08 bitrate= 279.0kbits/s dup=1 drop=0 speed= 5.7x    frame=23673 fps=137 q=32.0 size=   33637kB time=00:16:27.54 bitrate= 279.0kbits/s dup=1 drop=0 speed= 5.7x    frame=23748 fps=137 q=32.0 size=   33714kB time=00:16:30.65 bitrate= 278.8kbits/s dup=1 drop=0 speed= 5.7x    frame=23824 fps=137 q=32.0 size=   33783kB time=00:16:33.81 bitrate= 278.5kbits/s dup=1 drop=0 speed= 5.7x    frame=23905 fps=137 q=32.0 size=   33877kB time=00:16:37.18 bitrate= 278.3kbits/s dup=1 drop=0 speed= 5.7x    frame=23969 fps=137 q=32.0 size=   33970kB time=00:16:39.87 bitrate= 278.3kbits/s dup=1 drop=0 speed= 5.7x    frame=24032 fps=137 q=32.0 size=   34088kB time=00:16:42.51 bitrate= 278.5kbits/s dup=1 drop=0 speed= 5.7x    frame=24109 fps=137 q=32.0 size=   34155kB time=00:16:45.67 bitrate= 278.2kbits/s dup=1 drop=0 speed= 5.7x    frame=24201 fps=137 q=32.0 size=   34263kB time=00:16:49.51 bitrate= 278.0kbits/s dup=1 drop=0 speed=5.71x    frame=24264 fps=137 q=29.0 size=   34345kB time=00:16:52.16 bitrate= 278.0kbits/s dup=1 drop=0 speed=5.71x    frame=24345 fps=137 q=32.0 size=   34441kB time=00:16:55.57 bitrate= 277.8kbits/s dup=1 drop=0 speed=5.71x    frame=24435 fps=137 q=32.0 size=   34524kB time=00:16:59.28 bitrate= 277.5kbits/s dup=1 drop=0 speed=5.72x    frame=24534 fps=137 q=32.0 size=   34604kB time=00:17:03.42 bitrate= 277.0kbits/s dup=1 drop=0 speed=5.72x    frame=24653 fps=137 q=32.0 size=   34682kB time=00:17:08.41 bitrate= 276.3kbits/s dup=1 drop=0 speed=5.73x    frame=24786 fps=138 q=32.0 size=   34796kB time=00:17:13.96 bitrate= 275.7kbits/s dup=1 drop=0 speed=5.75x    frame=24898 fps=138 q=32.0 size=   34894kB time=00:17:18.61 bitrate= 275.2kbits/s dup=1 drop=0 speed=5.76x    frame=24970 fps=138 q=32.0 size=   35018kB time=00:17:21.64 bitrate= 275.4kbits/s dup=1 drop=0 speed=5.76x    frame=25059 fps=138 q=32.0 size=   35140kB time=00:17:25.31 bitrate= 275.4kbits/s dup=1 drop=0 speed=5.76x    frame=25141 fps=138 q=32.0 size=   35245kB time=00:17:28.76 bitrate= 275.3kbits/s dup=1 drop=0 speed=5.77x    frame=25199 fps=138 q=32.0 size=   35334kB time=00:17:31.15 bitrate= 275.4kbits/s dup=1 drop=0 speed=5.76x    frame=25271 fps=138 q=32.0 size=   35414kB time=00:17:34.18 bitrate= 275.2kbits/s dup=1 drop=0 speed=5.76x    frame=25333 fps=138 q=32.0 size=   35498kB time=00:17:36.74 bitrate= 275.2kbits/s dup=1 drop=0 speed=5.76x    frame=25397 fps=138 q=32.0 size=   35580kB time=00:17:39.43 bitrate= 275.1kbits/s dup=1 drop=0 speed=5.76x    frame=25460 fps=138 q=32.0 size=   35659kB time=00:17:42.03 bitrate= 275.1kbits/s dup=1 drop=0 speed=5.76x    frame=25538 fps=138 q=32.0 size=   35758kB time=00:17:45.32 bitrate= 275.0kbits/s dup=1 drop=0 speed=5.76x    frame=25610 fps=138 q=32.0 size=   35890kB time=00:17:48.31 bitrate= 275.2kbits/s dup=1 drop=0 speed=5.76x    frame=25687 fps=138 q=32.0 size=   36003kB time=00:17:51.51 bitrate= 275.3kbits/s dup=1 drop=0 speed=5.76x    frame=25776 fps=138 q=32.0 size=   36148kB time=00:17:55.26 bitrate= 275.4kbits/s dup=1 drop=0 speed=5.77x    frame=25885 fps=138 q=32.0 size=   36232kB time=00:17:59.78 bitrate= 274.9kbits/s dup=1 drop=0 speed=5.78x    frame=25961 fps=138 q=32.0 size=   36375kB time=00:18:02.94 bitrate= 275.2kbits/s dup=1 drop=0 speed=5.78x    frame=26084 fps=139 q=32.0 size=   36489kB time=00:18:08.10 bitrate= 274.7kbits/s dup=1 drop=0 speed=5.79x    frame=26194 fps=139 q=32.0 size=   36594kB time=00:18:12.71 bitrate= 274.3kbits/s dup=1 drop=0 speed= 5.8x    frame=26321 fps=139 q=32.0 size=   36700kB time=00:18:17.96 bitrate= 273.8kbits/s dup=1 drop=0 speed=5.81x    frame=26467 fps=140 q=32.0 size=   36779kB time=00:18:24.06 bitrate= 272.9kbits/s dup=1 drop=0 speed=5.83x    frame=26549 fps=140 q=32.0 size=   36873kB time=00:18:27.47 bitrate= 272.7kbits/s dup=1 drop=0 speed=5.83x    frame=26643 fps=140 q=32.0 size=   36971kB time=00:18:31.40 bitrate= 272.5kbits/s dup=1 drop=0 speed=5.83x    frame=26761 fps=140 q=32.0 size=   37077kB time=00:18:36.31 bitrate= 272.1kbits/s dup=1 drop=0 speed=5.85x    frame=26832 fps=140 q=32.0 size=   37185kB time=00:18:39.29 bitrate= 272.2kbits/s dup=1 drop=0 speed=5.85x    frame=26916 fps=140 q=32.0 size=   37291kB time=00:18:42.79 bitrate= 272.1kbits/s dup=1 drop=0 speed=5.85x    frame=27007 fps=140 q=32.0 size=   37392kB time=00:18:46.59 bitrate= 271.9kbits/s dup=1 drop=0 speed=5.85x    frame=27075 fps=140 q=32.0 size=   37503kB time=00:18:49.40 bitrate= 272.0kbits/s dup=1 drop=0 speed=5.85x    frame=27141 fps=140 q=32.0 size=   37601kB time=00:18:52.18 bitrate= 272.1kbits/s dup=1 drop=0 speed=5.85x    frame=27212 fps=140 q=32.0 size=   37694kB time=00:18:55.12 bitrate= 272.0kbits/s dup=1 drop=0 speed=5.85x    frame=27271 fps=140 q=32.0 size=   37786kB time=00:18:57.55 bitrate= 272.1kbits/s dup=1 drop=0 speed=5.85x    frame=27338 fps=140 q=32.0 size=   37866kB time=00:19:00.37 bitrate= 272.0kbits/s dup=1 drop=0 speed=5.85x    frame=27400 fps=140 q=32.0 size=   37988kB time=00:19:02.97 bitrate= 272.3kbits/s dup=1 drop=0 speed=5.85x    frame=27461 fps=140 q=32.0 size=   38077kB time=00:19:05.49 bitrate= 272.3kbits/s dup=1 drop=0 speed=5.84x    frame=27522 fps=140 q=32.0 size=   38152kB time=00:19:08.05 bitrate= 272.2kbits/s dup=1 drop=0 speed=5.84x    frame=27610 fps=140 q=32.0 size=   38242kB time=00:19:11.72 bitrate= 272.0kbits/s dup=1 drop=0 speed=5.84x    frame=27674 fps=140 q=32.0 size=   38300kB time=00:19:14.41 bitrate= 271.8kbits/s dup=1 drop=0 speed=5.84x    frame=27723 fps=140 q=32.0 size=   38393kB time=00:19:16.45 bitrate= 272.0kbits/s dup=1 drop=0 speed=5.84x    frame=27780 fps=140 q=29.0 size=   38466kB time=00:19:18.80 bitrate= 271.9kbits/s dup=1 drop=0 speed=5.84x    frame=27850 fps=140 q=32.0 size=   38561kB time=00:19:21.75 bitrate= 271.9kbits/s dup=1 drop=0 speed=5.84x    frame=27909 fps=140 q=32.0 size=   38669kB time=00:19:24.18 bitrate= 272.1kbits/s dup=1 drop=0 speed=5.83x    frame=27992 fps=140 q=32.0 size=   38751kB time=00:19:27.63 bitrate= 271.9kbits/s dup=1 drop=0 speed=5.84x    frame=28088 fps=140 q=32.0 size=   38823kB time=00:19:31.64 bitrate= 271.4kbits/s dup=1 drop=0 speed=5.84x    frame=28172 fps=140 q=32.0 size=   38929kB time=00:19:35.14 bitrate= 271.4kbits/s dup=1 drop=0 speed=5.84x    frame=28238 fps=140 q=32.0 size=   39053kB time=00:19:37.92 bitrate= 271.6kbits/s dup=1 drop=0 speed=5.84x    frame=28315 fps=140 q=32.0 size=   39135kB time=00:19:41.12 bitrate= 271.4kbits/s dup=1 drop=0 speed=5.84x    frame=28366 fps=140 q=32.0 size=   39193kB time=00:19:43.25 bitrate= 271.3kbits/s dup=1 drop=0 speed=5.84x    frame=28420 fps=140 q=32.0 size=   39251kB time=00:19:45.51 bitrate= 271.2kbits/s dup=1 drop=0 speed=5.83x    frame=28480 fps=140 q=32.0 size=   39329kB time=00:19:48.03 bitrate= 271.2kbits/s dup=1 drop=0 speed=5.83x    frame=28542 fps=140 q=32.0 size=   39428kB time=00:19:50.59 bitrate= 271.3kbits/s dup=1 drop=0 speed=5.83x    frame=28605 fps=140 q=32.0 size=   39512kB time=00:19:53.23 bitrate= 271.3kbits/s dup=1 drop=0 speed=5.83x    frame=28666 fps=140 q=32.0 size=   39632kB time=00:19:55.75 bitrate= 271.5kbits/s dup=1 drop=0 speed=5.83x    frame=28713 fps=140 q=32.0 size=   39760kB time=00:19:57.71 bitrate= 271.9kbits/s dup=1 drop=0 speed=5.82x    frame=28789 fps=140 q=29.0 size=   39865kB time=00:20:00.91 bitrate= 271.9kbits/s dup=1 drop=0 speed=5.82x    frame=28883 fps=140 q=32.0 size=   39988kB time=00:20:04.84 bitrate= 271.9kbits/s dup=1 drop=0 speed=5.83x    frame=28955 fps=140 q=32.0 size=   40102kB time=00:20:07.83 bitrate= 272.0kbits/s dup=1 drop=0 speed=5.83x    frame=29027 fps=140 q=32.0 size=   40191kB time=00:20:10.81 bitrate= 271.9kbits/s dup=1 drop=0 speed=5.83x    frame=29135 fps=140 q=32.0 size=   40296kB time=00:20:15.33 bitrate= 271.6kbits/s dup=1 drop=0 speed=5.83x    frame=29234 fps=140 q=32.0 size=   40398kB time=00:20:19.47 bitrate= 271.4kbits/s dup=1 drop=0 speed=5.84x    frame=29309 fps=140 q=32.0 size=   40464kB time=00:20:22.59 bitrate= 271.1kbits/s dup=1 drop=0 speed=5.84x    frame=29349 fps=140 q=32.0 size=   40532kB time=00:20:24.25 bitrate= 271.2kbits/s dup=1 drop=0 speed=5.83x    frame=29395 fps=140 q=32.0 size=   40590kB time=00:20:26.17 bitrate= 271.2kbits/s dup=1 drop=0 speed=5.83x    frame=29496 fps=140 q=32.0 size=   40686kB time=00:20:30.35 bitrate= 270.9kbits/s dup=1 drop=0 speed=5.84x    frame=29555 fps=140 q=32.0 size=   40737kB time=00:20:32.87 bitrate= 270.7kbits/s dup=1 drop=0 speed=5.83x    frame=29641 fps=140 q=32.0 size=   40800kB time=00:20:36.41 bitrate= 270.3kbits/s dup=1 drop=0 speed=5.84x    frame=29744 fps=140 q=32.0 size=   40893kB time=00:20:40.72 bitrate= 270.0kbits/s dup=1 drop=0 speed=5.84x    frame=29827 fps=140 q=32.0 size=   40972kB time=00:20:44.18 bitrate= 269.8kbits/s dup=1 drop=0 speed=5.85x    frame=29892 fps=140 q=32.0 size=   41064kB time=00:20:46.91 bitrate= 269.8kbits/s dup=1 drop=0 speed=5.84x    frame=29959 fps=140 q=32.0 size=   41180kB time=00:20:49.68 bitrate= 269.9kbits/s dup=1 drop=0 speed=5.84x    frame=30071 fps=140 q=32.0 size=   41255kB time=00:20:54.37 bitrate= 269.4kbits/s dup=1 drop=0 speed=5.85x    frame=30173 fps=140 q=32.0 size=   41373kB time=00:20:58.64 bitrate= 269.3kbits/s dup=1 drop=0 speed=5.86x    frame=30259 fps=140 q=32.0 size=   41465kB time=00:21:02.18 bitrate= 269.1kbits/s dup=1 drop=0 speed=5.86x    frame=30362 fps=141 q=32.0 size=   41562kB time=00:21:06.49 bitrate= 268.8kbits/s dup=1 drop=0 speed=5.87x    frame=30458 fps=141 q=32.0 size=   41637kB time=00:21:10.50 bitrate= 268.5kbits/s dup=1 drop=0 speed=5.87x    frame=30535 fps=141 q=32.0 size=   41763kB time=00:21:13.70 bitrate= 268.6kbits/s dup=1 drop=0 speed=5.87x    frame=30630 fps=141 q=32.0 size=   41868kB time=00:21:17.67 bitrate= 268.4kbits/s dup=1 drop=0 speed=5.88x    frame=30715 fps=141 q=32.0 size=   41987kB time=00:21:21.25 bitrate= 268.5kbits/s dup=1 drop=0 speed=5.88x    frame=30799 fps=141 q=32.0 size=   42087kB time=00:21:24.71 bitrate= 268.4kbits/s dup=1 drop=0 speed=5.88x    frame=30878 fps=141 q=32.0 size=   42190kB time=00:21:28.04 bitrate= 268.3kbits/s dup=1 drop=0 speed=5.88x    frame=30973 fps=141 q=32.0 size=   42267kB time=00:21:32.01 bitrate= 268.0kbits/s dup=1 drop=0 speed=5.89x    frame=31042 fps=141 q=32.0 size=   42359kB time=00:21:34.91 bitrate= 268.0kbits/s dup=1 drop=0 speed=5.89x    frame=31132 fps=141 q=32.0 size=   42463kB time=00:21:38.62 bitrate= 267.9kbits/s dup=1 drop=0 speed=5.89x    frame=31192 fps=141 q=32.0 size=   42522kB time=00:21:41.14 bitrate= 267.7kbits/s dup=1 drop=0 speed=5.89x    frame=31254 fps=141 q=32.0 size=   42586kB time=00:21:43.74 bitrate= 267.6kbits/s dup=1 drop=0 speed=5.89x    frame=31333 fps=141 q=32.0 size=   42663kB time=00:21:47.03 bitrate= 267.4kbits/s dup=1 drop=0 speed=5.89x    frame=31393 fps=141 q=32.0 size=   42734kB time=00:21:49.50 bitrate= 267.3kbits/s dup=1 drop=0 speed=5.89x    frame=31474 fps=141 q=32.0 size=   42829kB time=00:21:52.87 bitrate= 267.2kbits/s dup=1 drop=0 speed=5.89x    frame=31568 fps=141 q=32.0 size=   42903kB time=00:21:56.80 bitrate= 266.9kbits/s dup=1 drop=0 speed=5.89x    frame=31644 fps=141 q=32.0 size=   42984kB time=00:21:59.95 bitrate= 266.8kbits/s dup=1 drop=0 speed=5.89x    frame=31699 fps=141 q=32.0 size=   43064kB time=00:22:02.26 bitrate= 266.8kbits/s dup=1 drop=0 speed=5.89x    frame=31771 fps=141 q=32.0 size=   43166kB time=00:22:05.29 bitrate= 266.8kbits/s dup=1 drop=0 speed=5.89x    frame=31871 fps=141 q=32.0 size=   43227kB time=00:22:09.47 bitrate= 266.4kbits/s dup=1 drop=0 speed= 5.9x    frame=31945 fps=141 q=32.0 size=   43282kB time=00:22:12.54 bitrate= 266.1kbits/s dup=1 drop=0 speed= 5.9x    frame=32012 fps=141 q=32.0 size=   43353kB time=00:22:15.31 bitrate= 266.0kbits/s dup=1 drop=0 speed= 5.9x    frame=32066 fps=141 q=32.0 size=   43414kB time=00:22:17.57 bitrate= 265.9kbits/s dup=1 drop=0 speed=5.89x    frame=32124 fps=141 q=32.0 size=   43476kB time=00:22:20.01 bitrate= 265.8kbits/s dup=1 drop=0 speed=5.89x    frame=32185 fps=141 q=32.0 size=   43550kB time=00:22:22.52 bitrate= 265.7kbits/s dup=1 drop=0 speed=5.89x    frame=32243 fps=141 q=32.0 size=   43613kB time=00:22:25.00 bitrate= 265.6kbits/s dup=1 drop=0 speed=5.89x    frame=32303 fps=141 q=32.0 size=   43729kB time=00:22:27.43 bitrate= 265.9kbits/s dup=1 drop=0 speed=5.88x    frame=32347 fps=141 q=32.0 size=   43834kB time=00:22:29.31 bitrate= 266.1kbits/s dup=1 drop=0 speed=5.88x    frame=32381 fps=141 q=32.0 size=   43917kB time=00:22:30.72 bitrate= 266.4kbits/s dup=1 drop=0 speed=5.87x    frame=32420 fps=141 q=32.0 size=   44020kB time=00:22:32.34 bitrate= 266.7kbits/s dup=1 drop=0 speed=5.87x    frame=32460 fps=140 q=32.0 size=   44123kB time=00:22:34.00 bitrate= 266.9kbits/s dup=1 drop=0 speed=5.86x    frame=32509 fps=140 q=32.0 size=   44277kB time=00:22:36.05 bitrate= 267.5kbits/s dup=1 drop=0 speed=5.86x    frame=32557 fps=140 q=32.0 size=   44374kB time=00:22:38.05 bitrate= 267.7kbits/s dup=1 drop=0 speed=5.85x    frame=32608 fps=140 q=32.0 size=   44474kB time=00:22:40.19 bitrate= 267.9kbits/s dup=1 drop=0 speed=5.85x    frame=32675 fps=140 q=32.0 size=   44594kB time=00:22:42.96 bitrate= 268.0kbits/s dup=1 drop=0 speed=5.85x    frame=32716 fps=140 q=32.0 size=   44692kB time=00:22:44.71 bitrate= 268.3kbits/s dup=1 drop=0 speed=5.84x    frame=32756 fps=140 q=32.0 size=   44800kB time=00:22:46.37 bitrate= 268.6kbits/s dup=1 drop=0 speed=5.84x    frame=32796 fps=140 q=32.0 size=   44901kB time=00:22:48.04 bitrate= 268.9kbits/s dup=1 drop=0 speed=5.83x    frame=32841 fps=140 q=32.0 size=   45003kB time=00:22:49.87 bitrate= 269.1kbits/s dup=1 drop=0 speed=5.82x    frame=32892 fps=140 q=32.0 size=   45120kB time=00:22:52.01 bitrate= 269.4kbits/s dup=1 drop=0 speed=5.82x    frame=32948 fps=139 q=32.0 size=   45210kB time=00:22:54.35 bitrate= 269.5kbits/s dup=1 drop=0 speed=5.82x    frame=32992 fps=139 q=32.0 size=   45311kB time=00:22:56.19 bitrate= 269.7kbits/s dup=1 drop=0 speed=5.81x    frame=33040 fps=139 q=32.0 size=   45418kB time=00:22:58.19 bitrate= 270.0kbits/s dup=1 drop=0 speed=5.81x    frame=33095 fps=139 q=32.0 size=   45521kB time=00:23:00.50 bitrate= 270.1kbits/s dup=1 drop=0 speed=5.81x    frame=33155 fps=139 q=29.0 size=   45610kB time=00:23:03.01 bitrate= 270.2kbits/s dup=1 drop=0 speed=5.81x    frame=33225 fps=139 q=32.0 size=   45756kB time=00:23:05.92 bitrate= 270.5kbits/s dup=1 drop=0 speed=5.81x    frame=33308 fps=139 q=32.0 size=   45843kB time=00:23:09.37 bitrate= 270.3kbits/s dup=1 drop=0 speed=5.81x    frame=33353 fps=139 q=32.0 size=   45944kB time=00:23:11.25 bitrate= 270.5kbits/s dup=1 drop=0 speed= 5.8x    frame=33396 fps=139 q=32.0 size=   46076kB time=00:23:13.04 bitrate= 271.0kbits/s dup=1 drop=0 speed= 5.8x    frame=33427 fps=139 q=32.0 size=   46167kB time=00:23:14.36 bitrate= 271.2kbits/s dup=1 drop=0 speed=5.79x    frame=33459 fps=139 q=32.0 size=   46275kB time=00:23:15.69 bitrate= 271.6kbits/s dup=1 drop=0 speed=5.78x    frame=33490 fps=138 q=32.0 size=   46374kB time=00:23:16.97 bitrate= 271.9kbits/s dup=1 drop=0 speed=5.78x    frame=33536 fps=138 q=32.0 size=   46468kB time=00:23:18.89 bitrate= 272.1kbits/s dup=1 drop=0 speed=5.77x    frame=33601 fps=138 q=32.0 size=   46577kB time=00:23:21.57 bitrate= 272.2kbits/s dup=1 drop=0 speed=5.77x    frame=33647 fps=138 q=32.0 size=   46652kB time=00:23:23.49 bitrate= 272.3kbits/s dup=1 drop=0 speed=5.77x    frame=33699 fps=138 q=32.0 size=   46757kB time=00:23:25.67 bitrate= 272.5kbits/s dup=1 drop=0 speed=5.76x    frame=33748 fps=138 q=32.0 size=   46870kB time=00:23:27.72 bitrate= 272.8kbits/s dup=1 drop=0 speed=5.76x    frame=33814 fps=138 q=32.0 size=   46983kB time=00:23:30.45 bitrate= 272.9kbits/s dup=1 drop=0 speed=5.76x    frame=33878 fps=138 q=32.0 size=   47077kB time=00:23:33.14 bitrate= 272.9kbits/s dup=1 drop=0 speed=5.76x    frame=33934 fps=138 q=32.0 size=   47163kB time=00:23:35.48 bitrate= 273.0kbits/s dup=1 drop=0 speed=5.76x    frame=33991 fps=138 q=32.0 size=   47249kB time=00:23:37.87 bitrate= 273.0kbits/s dup=1 drop=0 speed=5.75x    frame=34038 fps=138 q=32.0 size=   47354kB time=00:23:39.79 bitrate= 273.2kbits/s dup=1 drop=0 speed=5.75x    frame=34083 fps=138 q=32.0 size=   47441kB time=00:23:41.71 bitrate= 273.4kbits/s dup=1 drop=0 speed=5.74x    frame=34123 fps=138 q=32.0 size=   47520kB time=00:23:43.38 bitrate= 273.5kbits/s dup=1 drop=0 speed=5.74x    frame=34164 fps=137 q=32.0 size=   47603kB time=00:23:45.08 bitrate= 273.6kbits/s dup=1 drop=0 speed=5.73x    frame=34219 fps=137 q=32.0 size=   47670kB time=00:23:47.39 bitrate= 273.6kbits/s dup=1 drop=0 speed=5.73x    frame=34290 fps=137 q=32.0 size=   47746kB time=00:23:50.33 bitrate= 273.5kbits/s dup=1 drop=0 speed=5.73x    frame=34343 fps=137 q=32.0 size=   47839kB time=00:23:52.55 bitrate= 273.6kbits/s dup=1 drop=0 speed=5.73x    frame=34384 fps=137 q=32.0 size=   47918kB time=00:23:54.26 bitrate= 273.7kbits/s dup=1 drop=0 speed=5.72x    frame=34418 fps=137 q=32.0 size=   47989kB time=00:23:55.67 bitrate= 273.8kbits/s dup=1 drop=0 speed=5.72x    frame=34462 fps=137 q=32.0 size=   48090kB time=00:23:57.50 bitrate= 274.1kbits/s dup=1 drop=0 speed=5.71x    frame=34508 fps=137 q=32.0 size=   48168kB time=00:23:59.42 bitrate= 274.1kbits/s dup=1 drop=0 speed=5.71x    frame=34548 fps=137 q=32.0 size=   48252kB time=00:24:01.08 bitrate= 274.3kbits/s dup=1 drop=0 speed= 5.7x    frame=34598 fps=137 q=32.0 size=   48357kB time=00:24:03.17 bitrate= 274.5kbits/s dup=1 drop=0 speed= 5.7x    frame=34650 fps=137 q=32.0 size=   48420kB time=00:24:05.35 bitrate= 274.4kbits/s dup=1 drop=0 speed= 5.7x    frame=34721 fps=137 q=32.0 size=   48523kB time=00:24:08.29 bitrate= 274.5kbits/s dup=1 drop=0 speed= 5.7x    frame=34780 fps=137 q=32.0 size=   48624kB time=00:24:10.77 bitrate= 274.6kbits/s dup=1 drop=0 speed=5.69x    frame=34834 fps=136 q=32.0 size=   48690kB time=00:24:13.03 bitrate= 274.5kbits/s dup=1 drop=0 speed=5.69x    frame=34895 fps=136 q=32.0 size=   48800kB time=00:24:15.59 bitrate= 274.6kbits/s dup=1 drop=0 speed=5.69x    frame=34953 fps=136 q=32.0 size=   48867kB time=00:24:17.98 bitrate= 274.6kbits/s dup=1 drop=0 speed=5.69x    frame=35012 fps=136 q=32.0 size=   48957kB time=00:24:20.45 bitrate= 274.6kbits/s dup=1 drop=0 speed=5.69x    frame=35066 fps=136 q=32.0 size=   49018kB time=00:24:22.67 bitrate= 274.5kbits/s dup=1 drop=0 speed=5.68x    frame=35129 fps=136 q=32.0 size=   49069kB time=00:24:25.32 bitrate= 274.3kbits/s dup=1 drop=0 speed=5.68x    frame=35191 fps=136 q=32.0 size=   49151kB time=00:24:27.92 bitrate= 274.3kbits/s dup=1 drop=0 speed=5.68x    [mp4 @ 0x27b7720] Starting second pass: moving the moov atom to the beginning of the file
frame=35221 fps=136 q=-1.0 Lsize=   50048kB time=00:24:28.99 bitrate= 279.1kbits/s dup=1 drop=0 speed=5.68x    
video:39842kB audio:9370kB subtitle:0kB other streams:0kB global headers:0kB muxing overhead: 1.696896%
[libx264 @ 0x28282c0] frame I:350   Avg QP:22.06  size: 15195
[libx264 @ 0x28282c0] frame P:11566 Avg QP:24.70  size:  2456
[libx264 @ 0x28282c0] frame B:23305 Avg QP:28.63  size:   303
[libx264 @ 0x28282c0] consecutive B-frames:  4.0% 12.1% 33.6% 50.3%
[libx264 @ 0x28282c0] mb I  I16..4: 25.7% 51.5% 22.8%
[libx264 @ 0x28282c0] mb P  I16..4:  5.3%  5.8%  1.1%  P16..4: 30.6%  4.2%  3.6%  0.1%  0.0%    skip:49.2%
[libx264 @ 0x28282c0] mb B  I16..4:  0.2%  0.2%  0.1%  B16..8: 12.4%  0.7%  0.1%  direct: 0.6%  skip:85.8%  L0:39.0% L1:59.3% BI: 1.7%
[libx264 @ 0x28282c0] 8x8 transform intra:48.0% inter:58.3%
[libx264 @ 0x28282c0] coded y,uvDC,uvAC intra: 25.4% 43.1% 7.5% inter: 1.8% 4.1% 0.0%
[libx264 @ 0x28282c0] i16 v,h,dc,p: 46% 27% 17%  9%
[libx264 @ 0x28282c0] i8 v,h,dc,ddl,ddr,vr,hd,vl,hu: 22% 17% 45%  3%  2%  2%  3%  3%  3%
[libx264 @ 0x28282c0] i4 v,h,dc,ddl,ddr,vr,hd,vl,hu: 27% 21% 19%  5%  5%  6%  6%  5%  5%
[libx264 @ 0x28282c0] i8c dc,h,v,p: 49% 24% 22%  5%
[libx264 @ 0x28282c0] Weighted P-Frames: Y:3.3% UV:1.8%
[libx264 @ 0x28282c0] ref P L0: 61.9% 10.7% 12.1%  4.1%  3.2%  3.0%  2.7%  1.6%  0.6%  0.0%
[libx264 @ 0x28282c0] ref B L0: 84.8%  6.5%  4.0%  1.6%  1.2%  1.1%  0.8%
[libx264 @ 0x28282c0] ref B L1: 94.0%  6.0%
[libx264 @ 0x28282c0] kb/s:222.18
